<?xml version="1.0" encoding="UTF-8" standalone="no"?>
<svg
   xmlns:dc="http://purl.org/dc/elements/1.1/"
   xmlns:cc="http://creativecommons.org/ns#"
   xmlns:rdf="http://www.w3.org/1999/02/22-rdf-syntax-ns#"
   xmlns:svg="http://www.w3.org/2000/svg"
   xmlns="http://www.w3.org/2000/svg"
   width="52.916668mm"
   height="35.277779mm"
   viewBox="0 0 52.916668 35.277779"
   version="1.1"
   id="svg8">
  <defs
     id="defs2" />
  <metadata
     id="metadata5">
    <rdf:RDF>
      <cc:Work
         rdf:about="">
        <dc:format>image/svg+xml</dc:format>
        <dc:type
           rdf:resource="http://purl.org/dc/dcmitype/StillImage" />
        <dc:title></dc:title>
      </cc:Work>
    </rdf:RDF>
  </metadata>
  <g
     id="layer1"
     transform="translate(11.544888,-85.379316)"
     style="display:inline">
    <polygon
       transform="matrix(0.60231135,0,0,0.61530291,-12.190566,70.513598)"
       id="Integrity"
       points="25.593,81.494 25.593,74.669 38.543,74.669 38.543,72.329 36.444,72.329 33.739,72.329 23.253,72.329 23.253,79.154 18.61,79.154 18.61,72.329 5.419,72.329 11.613,62.938 8.007,62.938 16.771,49.654 13.023,49.654 20.934,39.089 28.801,49.601 30.171,47.526 20.934,35.184 8.347,51.993 12.423,51.993 3.66,65.28 7.266,65.28 1.072,74.669 16.269,74.669 16.269,81.494 "
       style="fill:#ffffff;fill-opacity:1;stroke-width:3.62181;stroke-miterlimit:4;stroke-dasharray:none" />
    <polygon
       transform="matrix(0.60231135,0,0,0.61530291,-12.190566,70.513598)"
       id="polygon3759"
       points="73.732,81.494 73.732,74.669 88.928,74.669 82.734,65.28 86.34,65.28 77.58,51.993 81.656,51.993 69.068,35.184 59.957,47.356 61.326,49.434 69.068,39.089 76.979,49.654 73.229,49.654 81.994,62.938 78.389,62.938 84.58,72.329 71.391,72.329 71.391,79.154 66.748,79.154 66.748,72.329 56.262,72.329 53.557,72.329 51.695,72.329 51.695,74.669 64.408,74.669 64.408,81.494 "
       style="fill:#ffffff;fill-opacity:1" />
    <polygon
       transform="matrix(0.60231135,0,0,0.61530291,-12.190566,70.513598)"
       id="pride"
       points="66.576,68.273 59.061,56.884 63.438,56.884 52.805,40.766 57.551,40.766 45.117,24.16 32.688,40.766 37.436,40.766 26.799,56.884 31.179,56.884 23.661,68.273 40.882,68.273 40.882,80.323 49.355,80.323 49.355,68.273 "
       style="fill:#ffffff;fill-opacity:1" />
  </g>
</svg>
